<?xml version="1.0" encoding="utf-8"?>
<!-- Generator: Adobe Illustrator 21.0.0, SVG Export Plug-In . SVG Version: 6.00 Build 0)  -->
<svg version="1.1" id="Layer_1" xmlns="http://www.w3.org/2000/svg" xmlns:xlink="http://www.w3.org/1999/xlink" x="0px" y="0px"
	 viewBox="0 0 650 650" style="enable-background:new 0 0 650 650;" xml:space="preserve">
<style type="text/css">
	.st0{fill:#FF734F;}
	.st1{fill:#FFDCD3;}
	.st2{fill:#231F20;}
	.st3{font-family:'Roboto-Medium';}
	.st4{font-size:211.767px;}
</style>
<g id="surface1">
	<rect x="21" y="198.7" class="st0" width="614" height="252.3"/>
	<path class="st1" d="M167.7,460.8h314.5v52.4H167.7V460.8z"/>
	<path class="st1" d="M167.7,135.8h314.5v52.4H167.7V135.8z"/>
	<path class="st2" d="M209.7,93.9h230.6v21H209.7V93.9z"/>
	<path class="st2" d="M241.1,62.4h167.7v21H241.1V62.4z"/>
	<path class="st2" d="M209.7,534.2h230.6v21H209.7V534.2z"/>
	<path class="st2" d="M241.1,565.6h167.7v21H241.1V565.6z"/>
	<path class="st2" d="M649.8,187.8c-0.1-0.7-0.2-1.4-0.4-2.1c-0.3-1.3-0.9-2.4-1.8-3.4c-0.4-0.6-0.9-1.1-1.5-1.6
		c-0.2-0.2-0.4-0.5-0.6-0.6l-100.4-70.3V21c0-5.8-4.7-10.5-10.5-10.5H115.3c-5.8,0-10.5,4.7-10.5,10.5v88.9L4.5,180.1
		c-0.3,0.2-0.4,0.4-0.6,0.6c-0.6,0.5-1,1-1.5,1.6c-0.8,1-1.4,2.2-1.8,3.4c-0.2,0.7-0.4,1.4-0.4,2.1c-0.1,0.3-0.1,0.6-0.2,0.9v272.6
		c0,5.8,4.7,10.5,10.5,10.5h94.4V629c0,5.8,4.7,10.5,10.5,10.5h419.4c5.8,0,10.5-4.7,10.5-10.5V471.8h94.4c5.8,0,10.5-4.7,10.5-10.5
		V188.7C650,188.4,649.9,188.1,649.8,187.8z M606.3,178.2h-61.1v-42.8L606.3,178.2z M524.2,31.5v146.8h-31.5v-41.9
		c0-5.8-4.7-10.5-10.5-10.5H167.7c-5.8,0-10.5,4.7-10.5,10.5v41.9h-31.5V31.5H524.2z M178.2,178.2v-31.5h293.5v31.5H178.2z
		 M104.8,178.2H43.7l61.1-42.8V178.2z M524.2,618.6H125.8V471.8h31.5v41.9c0,5.8,4.7,10.5,10.5,10.5h314.5c5.8,0,10.5-4.7,10.5-10.5
		v-41.9h31.5V618.6z M471.8,471.8v31.5H178.2v-31.5H471.8z M629,450.8H21V199.2H629V450.8z"/>
	<text transform="matrix(1 0 0 1 94 404.0703)" class="st2 st3 st4">DCM</text>
</g>
</svg>
