<?xml version="1.0" encoding="utf-8"?>
<!-- Generator: Adobe Illustrator 21.0.0, SVG Export Plug-In . SVG Version: 6.00 Build 0)  -->
<svg version="1.1" id="Capa_1" xmlns="http://www.w3.org/2000/svg" xmlns:xlink="http://www.w3.org/1999/xlink" x="0px" y="0px"
	 viewBox="0 0 57.9 57.9" style="enable-background:new 0 0 57.9 57.9;" xml:space="preserve">
<style type="text/css">
	.st0{fill:#B5885B;}
	.st1{fill:#F7B563;}
	.st2{fill:#FF734F;}
	.st3{fill:#231F20;}
</style>
<g>
	<path class="st0" d="M54,39.1v-27c0-0.8-0.3-1.4-0.8-1.4H22.4c-0.3,0-0.5-0.2-0.7-0.7l-2.6-7.5C19.1,2.2,18.8,2,18.6,2H4.8
		C4.3,2,4,2.6,4,3.3v35.8C4,39.1,54,39.1,54,39.1z"/>
</g>
<path class="st1" d="M52.7,56H5.2c-0.1,0-0.2-0.1-0.3-0.2L0,22.7c0-0.2,0.1-0.3,0.3-0.3h57.4c0.2,0,0.3,0.2,0.3,0.3l-4.9,33
	C53,55.9,52.9,56,52.7,56z"/>
<g>
	<rect x="7.9" y="30.5" class="st2" width="42.1" height="17.3"/>
	<g>
		<path class="st3" d="M13.9,44.6V34.2H17c0.7,0,1.3,0.1,1.9,0.3c0.6,0.2,1.1,0.6,1.5,1c0.4,0.4,0.7,0.9,1,1.5
			c0.2,0.6,0.3,1.3,0.3,2v0.5c0,0.7-0.1,1.4-0.3,2c-0.2,0.6-0.5,1.1-1,1.5c-0.4,0.4-0.9,0.8-1.5,1s-1.2,0.3-1.9,0.3H13.9z
			 M15.7,35.7v7.5h1.2c0.5,0,0.9-0.1,1.3-0.2c0.4-0.2,0.7-0.4,0.9-0.7c0.2-0.3,0.4-0.7,0.6-1.1c0.1-0.4,0.2-0.9,0.2-1.5v-0.5
			c0-1.1-0.2-2-0.7-2.6c-0.5-0.6-1.2-0.9-2.1-0.9H15.7z"/>
		<path class="st3" d="M31.3,41.2c0,0.5-0.2,1-0.4,1.4c-0.2,0.4-0.5,0.8-0.8,1.1c-0.3,0.3-0.7,0.6-1.2,0.7c-0.5,0.2-1,0.3-1.7,0.3
			c-0.6,0-1.2-0.1-1.7-0.3c-0.5-0.2-1-0.6-1.3-1c-0.4-0.4-0.6-0.9-0.8-1.5s-0.3-1.3-0.3-2V39c0-0.7,0.1-1.4,0.3-2
			c0.2-0.6,0.5-1.1,0.9-1.5c0.4-0.4,0.8-0.8,1.3-1c0.5-0.2,1.1-0.3,1.8-0.3c0.6,0,1.2,0.1,1.6,0.3c0.5,0.2,0.9,0.4,1.2,0.7
			c0.3,0.3,0.6,0.7,0.8,1.1c0.2,0.4,0.3,0.9,0.4,1.4h-1.8c0-0.3-0.1-0.6-0.2-0.9c-0.1-0.3-0.2-0.5-0.4-0.7c-0.2-0.2-0.4-0.3-0.6-0.4
			s-0.6-0.1-0.9-0.1c-0.4,0-0.8,0.1-1.1,0.2c-0.3,0.2-0.6,0.4-0.8,0.7c-0.2,0.3-0.4,0.6-0.5,1.1s-0.2,0.9-0.2,1.5v0.9
			c0,0.5,0,1,0.1,1.4s0.2,0.8,0.4,1.1c0.2,0.3,0.4,0.5,0.7,0.7c0.3,0.2,0.7,0.2,1.1,0.2c0.4,0,0.7,0,1-0.1c0.3-0.1,0.5-0.2,0.7-0.4
			c0.2-0.2,0.3-0.4,0.4-0.6c0.1-0.3,0.2-0.5,0.2-0.9H31.3z"/>
		<path class="st3" d="M35.3,34.2l3,7.9l3-7.9h2.3v10.3h-1.8v-3.4l0.2-4.6l-3.1,8h-1.3l-3-8l0.2,4.5v3.4h-1.8V34.2H35.3z"/>
	</g>
</g>
</svg>
