<?xml version="1.0" encoding="utf-8"?>
<!-- Generator: Adobe Illustrator 21.0.0, SVG Export Plug-In . SVG Version: 6.00 Build 0)  -->
<svg version="1.1" id="Layer_1" xmlns="http://www.w3.org/2000/svg" xmlns:xlink="http://www.w3.org/1999/xlink" x="0px" y="0px"
	 viewBox="0 0 226.1 289.8" style="enable-background:new 0 0 226.1 289.8;" xml:space="preserve">
<style type="text/css">
	.st0{fill:#149699;}
	.st1{fill:#E99E7D;}
	.st2{fill:#A7D3DF;}
	.st3{fill:#E6E7ED;}
	.st4{fill:#90BDCD;}
	.st5{opacity:0.55;fill:#6AA8B9;}
	.st6{fill:#9895A2;}
	.st7{fill:#B5E2EE;}
	.st8{fill:#F4F5F5;}
	.st9{fill:#BF6947;}
	.st10{fill:#6892B9;}
	.st11{fill:#01243E;}
	.st12{opacity:0.58;fill:#F4F5F5;}
	.st13{fill:#E3E6E8;}
	.st14{fill:#B46F53;}
	.st15{fill:#F8AE92;}
	.st16{opacity:0.37;fill:#E99E7D;}
	.st17{fill:#EF3403;}
	.st18{opacity:0.65;fill:#D32705;}
	.st19{opacity:0.5;fill:#BC1E04;}
	.st20{opacity:0.4;fill:#FF5B3B;}
	.st21{opacity:0.53;fill:#FF5736;}
	.st22{opacity:0.7;fill:#FF5736;}
	.st23{opacity:0.56;fill:#F5F5F5;}
	.st24{opacity:0.97;fill:#6F1E0E;}
	.st25{fill:#F5F5F5;}
	.st26{fill:#18103A;}
	.st27{opacity:0.11;fill:#E3E2E8;}
	.st28{opacity:0.63;fill:#F5F5F5;}
</style>
<ellipse class="st0" cx="117.3" cy="150.4" rx="108.8" ry="118"/>
<g>
	<g>
		<rect x="106" y="68.4" class="st1" width="26.2" height="28.3"/>
		<path class="st2" d="M178.7,183.7c5.6-8.1,6.8-23.1,0.2-50.2c-5.4-22.5-20.2-45.3-45.9-49.7c-3.6-0.6-6,2.5-13,2.9
			c-11.7,0.6-9.7-3.1-14-2.3c-24.2,4.5-39.3,24.6-46,45.9c-8.4,26.7-10.3,43.3-7.8,53.4H178.7z"/>
		<g>
			<path class="st2" d="M94.8,39.1c1.6-2.1,0.1-7.7,0.1-10.2c0-3.5,0.7-7.7-0.3-11.1c-1.1-3.9-3.7-5.1-1.2-9.1
				c2.3-3.7,5.7-4.6,9.4-5.6c12.6-3.4,25.4-5.7,37.3,1.4c3.8,2.2,7.7,4.3,7.8,9.5c0,2.3-1,3.5-1.7,5.5c-0.6,1.8-0.4,3.4-0.3,5.3
				c0.1,6.6-2.8,12.3-4.4,17.8c0.1-7.3-4.2-13.8-10.7-15.8c-6.8-2.1-14-1.4-20.8,0.2c-4.1,1-7.4,0.9-10.1,4.9
				c-2.6,3.8-2.9,5.3-4.4,9.5c-0.3-0.3-0.4-0.6-0.5-1.1L94.8,39.1z"/>
			<path class="st3" d="M142.8,38.9c-0.3,7.2-11.2,12.6-24.5,12.2c-13.3-0.5-23.3-5-23-12.2c0.3-7.2,7.1-13.4,23.9-13.8
				C138.3,24.5,143.1,31.7,142.8,38.9z"/>
			<path class="st1" d="M98.1,34.1c-0.8,1.8-0.4,5.1-0.3,7.1c0.2,2.5,0.5,5.1,0.5,7.6c0,2.5,0.1,4.9,0.7,7.4
				c0.9,3.5,2.6,6.6,4.1,9.9c2.7,6,8.2,15,16,14.1c7.2-0.8,12.7-7.1,15.9-13.1c4.9-9.1,6.5-20.5,5.6-30.5c-0.4-4.2-3.6-6.8-7.7-8.9
				c-2.1-1.1-7.1-0.4-9.4-0.7c-2.3-0.3-2.4-0.1-4.8,0c-2.2,0.1-4.3,0.6-6.5,1.1c-2.3,0.5-4.7,0.8-6.8,1.8c-3.1,1.5-6.3,1.9-7.8,5.3
				c0-0.2,0.1-0.2,0.2-0.3L98.1,34.1z"/>
			<g>
				<path class="st4" d="M139.8,50.7c-0.8-0.4-2.3-0.1-3.4-0.2c-1.5-0.2-2.9-0.9-4.4-1.3c-2.5-0.6-4.3-1.9-6.5-3.1
					c-1.6-0.9-5.9-2.5-8.2-1.8c-4.2,1.1-4.4,5.5-4.7,7.7c-0.1,1.1,6.3,1.4,6.1,2.5c-0.1,1.1-2.4,2.3-2.5,3.4c0,2.2-2.7,3-2.8,5.3
					c-0.2,4.9,4.3,10.9,3.6,15.7c-0.2,1.7-1.1,5,1.1,5.3c2.2,0.3,4.3-1.5,5.9-2.7c2.1-1.5,3.9-3.2,6-4.7c0.9-0.6,1.8-1.5,2.8-2.1
					c0.9-0.6,2.1-0.7,3-1.2c4.1-2.4,1.8-7.2,2.7-10.8c0.5-2,0.2-4,0.8-6c0.5-1.9,0.3-4.1,0.5-5.8L139.8,50.7z"/>
			</g>
			<path class="st2" d="M98.7,49.3c0.8-0.4,2.3,0,3.4,0c1.5-0.1,3-0.7,4.4-1c2.5-0.4,4.4-1.6,6.7-2.6c1.6-0.7,4.2-2.7,5.6-0.7
				c1.7,2.3-0.6,4.2-0.5,6.4c0.1,1.1,1,1.9,1.1,3.1c0.1,1.1-0.6,2.1-0.6,3.2c-0.1,2.2,0.8,4.2,0.7,6.5c-0.2,4.9-0.5,9.9-0.1,14.8
				c0.1,1.7,0.8,5.1-1.5,5.2c-2.2,0.1-4.2-1.8-5.7-3.1c-2-1.6-3.7-3.5-5.7-5.1c-0.9-0.7-1.7-1.6-2.6-2.3c-0.9-0.6-2-0.8-2.9-1.4
				c-4-2.7-1.3-7.3-1.9-11c-0.3-2,0.1-4-0.3-6c-0.4-1.9,0-4.1-0.1-5.8L98.7,49.3z"/>
			<path class="st5" d="M118.7,44.6c1.8,0.1,0,4.5-0.1,5.4c-0.4,3.8,4.2-1.8,5.3,1.6c0.5,1.4-1,1.5-1.9,1.9c-0.4,0.2-1,0.3-1.2,0.7
				c-0.5,0.6,0,0.6-0.2,1.2c-0.6,2-2.1,4.1,1,4.4c2.2,0.2,3.9,0.6,5.2,2.6c0.8,1.2,2.1,3.5,0.1,3.7c-1.8,0.2-5.2-3.5-6.3-1.9
				c-0.4,0.5-0.4,2.5-0.4,3.1c0.1,1.1,0.6,1.9,1.7,2.3c0.7,0.2,2.5-0.3,2.9,0.5c0.4,0.9-1.2,2.1-1.7,2.6c-0.9,0.8-1.7,1.4-1.8,2.6
				c-0.1,1.1,0.5,2.3,0.4,3.5c-0.1,1.9-1.2,5-3.4,5.4c1.4-1.8,1.2-3.8,1.1-5.9c-0.2-2.1-0.1-4.2,0.1-6.3c0.4-4.2-0.4-8.3-0.8-12.3
				c-0.2-1.4,0.2-2.7,0.5-3.9c0.5-1.8-0.6-1.8-0.9-3.4c-0.5-2.6,2-5.3,0.5-8L118.7,44.6z"/>
			<path class="st5" d="M139,50.8c-0.8,0.6-0.7,2-1,2.9c-0.4,1.4-1,2.7-1.9,3.8c-0.8,1.1-1.4,2-1.8,3.3c-0.4,1.5-0.7,2.9-2.1,3.9
				c-2.2,1.7-4.1,1.3-6.1-0.2c-1.3-0.9-3.7-2.8-5.3-2.4c-2,0.5-0.9,3.3-0.8,4.7c0.2,2.1,0.2,4.1,0.2,6.2c-0.1,3.9-0.5,7.6-1.7,11.1
				c1.6,0.1,4.4-1.3,5.7-2.3c1.6-1.4,2.8-3.3,4.5-4.7c1.4-1.1,3.1-2.3,4.7-3.1c2.1-1.1,3.5-1,4.5-3.5c1.1-3.1,0.1-6.6,0.7-9.9
				c0.3-1.6,0.8-3.1,0.8-4.9c0-1.4,0.6-3.8,0-5.1c-0.1,0-0.1,0.1-0.2,0.2L139,50.8z"/>
			<path class="st5" d="M99,56.3c-0.1,0.2,0,2.1-0.1,2.7c-0.1,1.1,0.4,1.9,0.4,3c0.1,2.1-0.8,4.1-0.6,6.3c0.4,4,5.2,5.1,7.9,7.3
				c2.4,2.1,4.2,4.9,6.6,6.9c1.2,0.9,2.4,1.6,3.8,1.5c1.6-0.1,3.1-1.7,2.5-3.5c0.3,2.8-2.9,2.4-4.5,1.5c-2.2-1.2-2.8-3.2-4-5.3
				c-2.3-4.4-8.2-6.6-8.8-12c-0.2-2.2,0.2-3.6-1.1-5.6c-0.7-1.1-0.6-1.5-0.8-2.7c-0.1-0.8-0.4-1.6-1.1-2.1c-0.6,0.5-0.5,1.5-0.3,2.2
				L99,56.3z"/>
			<path class="st6" d="M97.5,42.8c-0.3,0.3-0.1-0.7-0.1-1.4c0-0.8,0-1.4,0.1-2.3c0.2-1.5,0.7-3,1.7-4.2c2.1-2.6,5.4-4.3,8.5-4.9
				c6.4-1.3,12.8-2.9,19.5-2c3.9,0.5,8.4,1.9,11.1,5.1c3.1,3.6,1.5,7.7,2.2,11.8c3.9-5.4,0.4-12.3-4.6-15.5
				c-5.3-3.4-11.9-2.3-17.8-2.2c-2.7,0-5-0.1-7.8,0.4c-2.6,0.4-5.5,1.2-7.9,2.2c-5.3,2.2-7.9,8.8-5.3,13.5L97.5,42.8z"/>
			<path class="st5" d="M132.4,2.3c0.4,0.4,0.9,2.4,0.8,3.5c-0.2,2.2-1.1,2-2.6,2.8c-1,0.5-2.8,1.4-2.4,3c0.3,1.7,2.9,1.6,3.3,3.4
				c1.6,6.4-10.7,4-10,9.9c7.6-1.6,20.2,3.8,21.2,12.3c1.5-2.1,2.3-5,2.8-7.6c0.6-3.2-0.4-6.3,0.1-9.5c0.5-3.4,2.3-5,1.1-8.6
				c-0.9-2.7-2.2-4-4.6-5.6c-1.4-0.9-3.1-2.1-4.7-2.6c-1.7-0.6-3.8-0.1-5-1.8L132.4,2.3z"/>
			<path class="st7" d="M103.4,3.8c-1.7,1.7-3.1,4.2-1.6,6.5c0.7,1.1,2,1.5,1.7,2.9c-0.3,1.2-2.5,1.7-2.6,3
				c-0.1,1.9,6.2,0.8,7.9,1.6c2.9,1.3,4.4,4.2,5.8,6.8c-1.7,0.7-3.9-0.1-5.6,0.2c-1.8,0.3-4.1,1.2-5.7,2c-3,1.5-6,5-6.9,8.1
				c-2.9-5.3,1.7-12.3-1.3-18c-1.4-2.8-3.2-5-1.3-8.1c1.3-2.2,4.5-3.8,7-4.4c0.8-0.2,2.3-0.2,2.5-0.1L103.4,3.8z"/>
			<path class="st5" d="M132.8,1.7c3.6,1.9,6.2,4.2,6.9,8.4c0.3,2.1,0.3,3.4-1.9,3.1c-1.1-0.1-3.9-1.3-3.6,1.3
				c0.2,1.8,3.6,1.5,4,3.4c0.4,2.2-2.3,2-3.6,1.8c-1.2-0.1-11.3-0.6-7.5,2.8c1.4,1.3,4.6,0.6,6.4,1.3c1.9,0.7,3.8,1.9,5.3,3.2
				c3.1,2.8,3.4,6.6,4.1,10.3c1.5-3,2.4-6,2.5-9.3c0.1-3.1-0.8-6.6,0.1-9.6c1-3.3,2.9-5.2,0.9-8.8c-1.5-2.6-4.7-3.7-7.2-5.1
				c-1.9-1.1-5-1.2-6.3-3L132.8,1.7z"/>
			<path class="st5" d="M95.4,25.7c-1.1-2.4,2.4-6.1,4.1-7.4c0.7-0.5,7.8-4.7,4.7-5.8c-1.6-0.6-4.8,3.4-6.9,3.2
				c-2.4-0.1-3.6-2.2-4.4-4.2c-1.7,1,1.7,4.9,2,6.4c0.4,2.2,0.6,5.6,0.3,7.7L95.4,25.7z"/>
		</g>
		<g>
			<path class="st8" d="M105.2,40.4c1.8-3.8,6.2-0.4,7.6,1.8c-1.7,0.8-3.2,1.2-5.1,1c-0.9-0.1-1.4-0.2-2-0.8
				c-0.5-0.5-1.2-1.6-0.6-1.8L105.2,40.4z"/>
			<path class="st9" d="M104.2,40.1c0-0.1,0.3-0.2,0.1-0.1c1-2.1,3.2-2.8,5.3-1.9c2.1,0.9,2.7,2.4,3.7,4.3c-1.6-2.5-7.3-5.9-8.5-1.1
				c-0.3-0.4-0.4-1.1-0.1-1.5L104.2,40.1z"/>
			<path class="st9" d="M102.5,36.6c1.6-0.1,3.7-2.1,5.7-1.8c2,0.3,3.2,2.8,4.6,4.1c0.6,0.6,2.1,2,2.2,0.4c0.1-0.8-1.1-2.2-1.5-2.8
				c-1.2-1.6-3-2.9-4.9-2.6c-0.9,0.1-6.7,2.2-6.2,2.7H102.5z"/>
			<path class="st10" d="M106.8,39c-0.6-0.3-0.4,2.6,0.9,3.1c1.5,0.6,2.5-1.1,3-2.1C110,39.4,107.5,38.2,106.8,39L106.8,39z"/>
			<ellipse class="st11" cx="108.4" cy="40" rx="1.1" ry="1.1"/>
			<path class="st8" d="M108.8,40.1c0.1,0.3,0.5,0.8,0.7,1.3c0.2,0.5,0.3,1,0.3,1.5c0.2-0.2,0.6-0.3,0.6-0.6
				c0.1-0.2-0.2-0.7-0.4-0.9c-0.1-0.3-0.3-0.5-0.5-0.8C109.3,40.4,109,40.3,108.8,40.1L108.8,40.1z"/>
			<path class="st12" d="M108.1,39.7c-1.1,0.4-1.4,0.9-2,1.9c-0.1-0.2-0.5-0.5-0.6-0.7c-0.1-0.4,0.2-0.5,0.6-0.7
				C106.7,39.9,107.4,39.7,108.1,39.7L108.1,39.7z"/>
		</g>
		<g>
			<path class="st8" d="M131.9,39.9c-1.8-3.8-6.2-0.4-7.6,1.8c1.7,0.8,3.3,1.2,5.1,1c0.9-0.1,1.4-0.2,2-0.8c0.5-0.5,1.2-1.6,0.5-1.8
				L131.9,39.9z"/>
			<path class="st9" d="M132.9,39.7c0-0.1-0.3-0.2-0.1-0.1c-1-2.1-3.2-2.8-5.3-1.9c-2.1,0.9-2.7,2.4-3.7,4.3
				c1.6-2.5,7.3-5.9,8.5-1.1c0.3-0.4,0.4-1.1,0.1-1.5L132.9,39.7z"/>
			<path class="st9" d="M134.6,36.2c-1.6-0.1-3.7-2.1-5.7-1.8c-2,0.3-3.2,2.8-4.6,4.1c-0.6,0.6-2.1,2-2.2,0.4
				c-0.1-0.8,1.1-2.2,1.5-2.8c1.2-1.6,3-2.9,4.9-2.6c0.9,0.1,6.7,2.2,6.2,2.7H134.6z"/>
			<path class="st10" d="M130.3,38.5c0.6-0.3,0.4,2.6-0.9,3.1c-1.5,0.6-2.5-1.1-3-2.1C127,39,129.6,37.8,130.3,38.5L130.3,38.5z"/>
			<ellipse class="st11" cx="128.7" cy="39.5" rx="1.1" ry="1.1"/>
			<path class="st8" d="M128.3,39.7c-0.1,0.3-0.5,0.9-0.7,1.3c-0.2,0.5-0.3,1-0.3,1.5c-0.2-0.2-0.6-0.3-0.6-0.6
				c-0.1-0.3,0.2-0.7,0.4-0.9c0.1-0.3,0.3-0.5,0.5-0.8C127.8,40,128.1,39.9,128.3,39.7L128.3,39.7z"/>
			<path class="st12" d="M129,39.3c1.1,0.4,1.4,0.9,2,1.9c0.1-0.2,0.5-0.5,0.6-0.7c0.1-0.4-0.2-0.5-0.6-0.7
				C130.4,39.4,129.7,39.2,129,39.3L129,39.3z"/>
		</g>
		<path class="st13" d="M105.8,80.9c0.8,0.2,1.5,2.2,2.2,3c0.9,1,1.9,1.7,3.1,2.2c2.7,0.9,6,1.3,8.8,1c3.1-0.3,5.7-1.8,8.6-3.2
			c1.4-0.7,2.5-1.4,3.3-2.7c0.6-1,1.1-3.2,2.3-1.4c1.8,2.8-3.1,7.1-5.3,8c-2.9,1.2-6.3,2-9.3,2.4c-4.9,0.7-14.7,0.2-14.4-6.7
			c0-0.9,0.2-2,0.8-2.7V80.9z"/>
		<path class="st5" d="M74.5,130.1c0.1,2.5,0.9,4.9,2.6,6.8c0.3-4.1-6.7-8.6-11.2-4.7c-8.2,7,6.5,7,10.1,8.1
			c-4.4,4.3-11.7,5.4-16.3,11.2c-3.9,5-10,17.4-3.1,21.9c4.7-3.3,16-31.2,25.1-23.5c3.6,3.1-2.6,10.5,2.9,13.6
			c4.4,2.5,10.8-4.6,15.5-5c-2.2-5.5-7.6-4.7-11.4-7.8c-2.7-2.2-9.1-9.3-10.3-12.1L74.5,130.1z"/>
		<path class="st4" d="M104,86.5c-2,3-6.6,3.5-9.7,5.1c-2.7,1.4-5.8,5.6-0.8,6.5c5.6,1,14.2-11.3,13.2,0.7
			c-0.3,3.1-1.5,10.5,2.3,12.1c4.2,1.7,4.7-4.2,5.4-6.7c1.5-5.3,3.8-15,10.5-10.4c1.8,1.2,5.3,5.5,7.5,1.9c1.5-2.5-3.6-6-0.9-7.9
			c1.6-1.1,6.5,3.4,7.9-0.2c1.1-2.9-3.4-3.9-5.5-3.6c-2.6,0.5-4.5,2.5-7,3.7c-3,1.5-5.2,1.8-8.2,2.1c-4.3,0.4-12.1,0.4-13.9-4.7
			L104,86.5z"/>
		<path class="st4" d="M138.6,89.2c4.3,4.5,8.5,14.4,9.8,21.1c0.4,2.3,0.9,4.7,0.7,7.1c-0.2,3-0.6,2.6-2.3,4.2
			c-3.9,3.8-4.6,6.5-5.1,12.2c-0.4,4.4-0.5,9.1-3.4,12.7c-2.6,3.2-6.1,3.8-9.6,5.7c-6.4,3.4-13.4,10.6-15.7,17.5
			c-2.5,7.7,1.8,8.4,8.2,8.4c6.2,0,12.6,1.5,18.4,3c5.7,1.6,14.2,0,19.7,0.9c5.2,0.8,10.4,3.4,14.4-0.5c9.7-9.5,4.3-30.7,2-42
			c-2.9-14-7.6-28.9-16.3-40.5c-2.5-3.3-21.4-15.8-19.8-11.6L138.6,89.2z"/>
		<path class="st5" d="M156.3,114.1c0.3,2.8,1.7,5.8,2.3,8.6c-0.4-1.3-0.3-2.7-0.6-4c-0.5-2.1-2.1-4.5-2.1-6.6
			c0-3.6,3.4-1.9,5.2-0.7c5.5,3.8,2.5,13,1.4,18.3c1.2-1.2,6.9-5,8.1-2.1c0.8,1.9-4.8,5.9-5.8,7.3c4.3-0.4,8,0.9,10.2,5
			c1.2,2.2,4,9.3,1.6,11.5c-1.8-1.3-2.7-4-4.3-5.7c-1.6-1.5-3.2-2.9-5.4-3.4c0.1,2.4,1.2,3.7,0.5,6.4c-0.6,2.4-1.8,4.9-3.4,6.9
			c-2.4,3-10.4,5.5-13.8,3.1c6.2,0.5,15.2-9.4,12.7-15.7c-0.6-1.6-2.3-2.5-3-4c-0.6-1.4-0.1-3.1-0.2-4.6c-0.2-3.2-0.4-6.5-0.8-9.6
			c-0.1-0.9-0.5-1.4-0.2-2.3L156.3,114.1z"/>
		<path class="st5" d="M101.3,144.4c0.1-0.4,0.6-0.6,0.1-0.7c4.2,5.5,6.1,11.4,5.8,18.5c-0.2,4.6-1.4,13.8-7,15.1
			c-0.1,0.1-0.1,0.2,0,0c3.2-3.9,4.8-13.1,0.4-16.7c-0.3,1.6-2,7.3-4.4,6.9c-2.5-0.5-0.1-6.5-0.5-8.5c-1.1,1.7-2,5.5-4.7,4.7
			c-2-0.6-3.2-5.8-3.3-7.4c7.5-2.5,13.2-3.5,13.5-11.6V144.4z"/>
		<path class="st5" d="M84.2,109.5c-2.3,0.8-3.6,5.3-4.3,7.4c-1.3,3.7-1.7,8.3-2,12.1c-1.1-4.1-8.3-3.3-9.2,0.8
			c-1,4.4,8.2,2.4,6.4,6.6c-0.3,0.8-1.4,0.4-1.1,1.7c0.2,0.8,1.6,1,2,1.7c1,1.7-0.8,2.6-1.8,3.9c-0.8,1.1-2.6,4.2-0.3,4.6
			c2.1,0.4,2.1-2.9,3.3-3.1c1.2-0.2,1.7,3.1,3,3.4c-0.1-3.4-3-5.3-0.7-8.8c1.7-2.7,3.4-4.8,3.4-8.1c0-3.2-1.1-6.7-0.8-10
			c0.3-3.1,1.6-6.2,2.1-9.3c0.1-0.7,0.3-1.3,0.2-2.1L84.2,109.5z"/>
		<g>
			<path class="st13" d="M83,128.8c-1.4,0.2-0.5,3.3-0.3,4.6c-0.6-0.5-1.1-0.2-1.7-0.4c-0.4,1.1,0,2.2-0.3,3.3
				c-0.5,1.7-1.4,1.1-2.1,2.3c-0.9,1.6-0.1,4.3,0.3,6.2c0.9,4.7,3.6,7.4,8.1,9c3.3,1.2,9.2,1.8,12.2-1c2.3-2.3,3.1-8.4,2.1-11.3
				c-0.1-0.3-0.1-0.9-0.2-1c-0.6,5.3-8.9,8.1-13,4.6c-3.6-3-5.7-11.2-4.4-15.7L83,128.8z"/>
			<path class="st13" d="M100.9,140.5c1.1,1.5-5,5.6-6.8,6c0.7,1.1,2.2,0.3,3.3,0.2c-0.7,0.9-1.7,2.6,0.2,2.6
				c-0.4,1.8-2.5,2.5-4,3.1c1.7,2.9,5.7,0.3,6.7-1.9c1.2-2.8,1.3-6.1,0.8-9.1L100.9,140.5z"/>
			<g>
				<path class="st14" d="M95.2,103.2c1.4-0.9,4.6-0.6,3.8,1.9c-0.4,1.2-1.9,2.4-2.6,3.3c-0.9,1.1-2,2-3.1,3
					c-0.6,0.5-1.9,2.1-2.8,1.2c-0.6-0.6,0.6-2.3,0.8-3c0.5-1.2,1.1-2.2,1.8-3.3C93.5,105.8,94.8,103.2,95.2,103.2c0,0,0,0.1,0,0.1
					V103.2z"/>
				<path class="st1" d="M82.1,119.4c-2.2,0.6,2.1,18.7,2.9,21.2c1.8,5.6,8,7.9,12.6,4.9c2.1-1.4,2.9-3.6,3.5-6c0.5-2-0.1-6,1.1-7.6
					c0.7-0.9,2.4-1.6,3.3-2.3c1.5-1.2,2.8-2,3.8-3.7c1.5-2.3,2.2-6.1-1.4-4.5c-2.2,0.9-4.4,2.3-6.4,3.5c1.2-2,2.2-4.2,4.1-5.3
					c1.7-1,5.3-2.7,6.1-4.9c1.4-3.9-3.4-2.9-5-2.3c-2.3,0.9-5.3,1.6-7.3,3.3c-0.9,0.8-1.3,2-2.4,2.6c1.1-1.8,1.6-4.2,3.5-5.8
					c2-1.7,4.4-2.8,6.3-4.6c1.7-1.6,3.1-4.2,1.2-6.3c-1.8-1.9-4.9,1-6.7,2.1c-1.9,1.2-3.8,2.4-5.5,3.9c-1,0.8-2.1,1.4-3.1,2.2
					c-0.6,0.5-1.1,1.4-1.8,1.8c-0.3-2.1,3.2-5.6,4-7.5c1-2.2,2.6-6,0.7-8.1c-2.4-2.6-3.7,1.9-4.9,3.6c-1.5,2.1-3.2,4.1-4.8,6.2
					c-1.7,2.4-2,4.6-2.8,7.3c-0.5,1.9-1.9,5.6-1.7,7.3L82.1,119.4z"/>
				<path class="st15" d="M93.3,95.8c0,1.6-2.4,4-3.3,5.3c-1.2,1.7-3.1,3.2-3.7,5.1c-0.6,2.1-1,4.4-1.7,6.6
					c-0.6,2.2-1.7,4.3-1.7,6.6c-0.1,5.2,0.7,10.6,1.5,15.7c0.6,3.6,2.1,8.9,5.8,10.5c0.9,0.4,1.8,0.6,2.7,0.4c0.6-0.1,3-0.9,3.2-1.4
					c0.5-1.2-2-3-2.5-3.7c-1.6-1.9-3-3.8-3.9-6.1c-0.9-2.2-2.4-4.4-3-6.7c-0.4-1.8-0.6-3.7-0.8-5.5c-0.3-3.3,0.6-6.2,0.8-9.5
					c0.1-1.8-0.1-3.5,0.4-5.2c0.5-1.6,1.7-2.7,2.6-4.1c1.4-2.3,2.4-5.5,3.7-7.5L93.3,95.8z"/>
				<path class="st15" d="M97.2,107.1c1.7-2,5-3.8,7.3-5.1c1.3-0.7,2.2-1.2,3.3,0.1c0.8,0.9,0.9,3.8-0.6,4.1
					c0.5-2.8-1.3-3.6-3.9-2.5c-0.9,0.4-1.8,0.9-2.6,1.4c-0.8,0.5-1.7,1.6-2.7,1.6L97.2,107.1z"/>
				<path class="st15" d="M97.8,118.5c1.7-2,2.7-3.1,5.1-4.1c2.2-1,4.6-1.9,7-2.4c-2.2,1-4.4,1.4-6.4,3c-1,0.8-4,4.8-5.3,3.8
					L97.8,118.5z"/>
				<path class="st15" d="M106.7,122.3c2.7-0.6,0.7,3-0.3,4c-1.2,1.1-2.5,2.5-3.6,3.5c2.4-1.1,4.7-2,6.2-4.4c0.5-0.8,1.7-2.9,1-3.8
					c-0.8-1-2.7,0.1-3.2,0.6L106.7,122.3z"/>
			</g>
		</g>
		<path class="st5" d="M140.6,142.5c-5.3,6.5-10.8,20.6-2,27.3c0.2-3.7-1.9-7.7-0.2-11.4c1.1,1.5,1.1,6.2,3.8,6.8
			c4.1,0.9-0.2-4.7-0.7-6.1c-1.6-4.2-2.5-11.3,0.3-15L140.6,142.5z"/>
		<g>
			<g>
				<path class="st14" d="M146.9,107.1c-1.4-0.9-4.6-0.6-3.8,1.9c0.4,1.2,1.9,2.4,2.6,3.3c0.9,1.1,2,2,3.1,3
					c0.6,0.5,1.9,2.1,2.8,1.2c0.6-0.6-0.6-2.3-0.8-3c-0.5-1.2-1.1-2.2-1.8-3.3C148.7,109.7,147.4,107.1,146.9,107.1c0,0,0,0.1,0,0.1
					V107.1z"/>
				<path class="st1" d="M160,123.3c2.2,0.6-2.1,18.7-2.9,21.2c-1.8,5.6-8,7.9-12.6,4.9c-2.1-1.4-2.9-3.6-3.5-6
					c-0.5-2,0.1-6-1.1-7.6c-0.7-0.9-2.4-1.6-3.3-2.3c-1.5-1.2-2.8-2-3.8-3.7c-1.5-2.3-2.2-6.1,1.4-4.5c2.2,0.9,4.4,2.3,6.4,3.5
					c-1.2-2-2.2-4.2-4.1-5.3c-1.7-1-5.3-2.7-6.1-4.9c-1.4-3.9,3.4-2.9,5-2.3c2.3,0.9,5.3,1.6,7.3,3.3c0.9,0.8,1.4,2,2.4,2.6
					c-1.1-1.8-1.6-4.2-3.5-5.8c-2-1.7-4.4-2.8-6.3-4.6c-1.7-1.6-3.1-4.2-1.2-6.3c1.8-1.9,4.9,1,6.7,2.1c1.9,1.2,3.8,2.4,5.5,3.9
					c1,0.8,2.1,1.4,3.1,2.2c0.6,0.5,1.1,1.4,1.8,1.8c0.3-2.1-3.2-5.6-4-7.5c-1-2.2-2.6-6-0.7-8.1c2.4-2.6,3.7,1.9,4.9,3.6
					c1.5,2.1,3.2,4.1,4.8,6.2c1.7,2.4,2,4.6,2.8,7.3c0.5,1.9,1.9,5.6,1.7,7.3L160,123.3z"/>
				<path class="st15" d="M148.9,99.7c0,1.6,2.4,4,3.3,5.3c1.2,1.7,3.1,3.2,3.7,5.1c0.6,2.1,1,4.4,1.7,6.6c0.6,2.2,1.7,4.3,1.7,6.6
					c0.1,5.2-0.7,10.6-1.5,15.7c-0.6,3.6-2.1,8.9-5.8,10.5c-0.9,0.4-1.8,0.6-2.7,0.4c-0.6-0.1-3-0.9-3.2-1.4c-0.5-1.2,2-3,2.5-3.7
					c1.6-1.9,3-3.8,3.9-6.1c0.9-2.2,2.4-4.4,3-6.7c0.4-1.8,0.6-3.7,0.8-5.5c0.3-3.3-0.6-6.2-0.8-9.5c-0.1-1.8,0.1-3.4-0.4-5.2
					c-0.5-1.6-1.7-2.7-2.6-4.1c-1.4-2.3-2.4-5.5-3.7-7.5L148.9,99.7z"/>
				<path class="st15" d="M145,111c-1.7-2-5-3.8-7.3-5.1c-1.3-0.7-2.2-1.2-3.3,0.1c-0.8,0.9-0.9,3.8,0.6,4.1
					c-0.5-2.8,1.3-3.6,3.9-2.5c0.9,0.4,1.8,0.9,2.6,1.4c0.8,0.5,1.7,1.6,2.7,1.6L145,111z"/>
				<path class="st15" d="M144.3,122.4c-1.7-2-2.7-3.1-5.1-4.1c-2.2-1-4.6-1.9-7-2.4c2.2,1,4.4,1.4,6.4,3c1,0.8,4,4.8,5.3,3.8
					L144.3,122.4z"/>
				<path class="st15" d="M135.4,126.2c-2.7-0.6-0.7,3,0.3,4c1.2,1.1,2.5,2.5,3.6,3.5c-2.4-1.1-4.7-2-6.2-4.4
					c-0.5-0.8-1.7-2.9-1-3.8c0.8-1,2.7,0.1,3.2,0.6L135.4,126.2z"/>
			</g>
			<path class="st13" d="M159.2,132.6c1.4,0.2,0.5,3.3,0.3,4.6c0.6-0.5,1.1-0.2,1.7-0.4c0.4,1.1,0,2.3,0.3,3.3
				c0.5,1.7,1.4,1.1,2.1,2.3c0.9,1.6,0.1,4.3-0.3,6.2c-0.9,4.7-3.6,7.4-8.1,9c-3.3,1.2-9.2,1.8-12.2-1c-2.3-2.3-3.1-8.4-2.1-11.3
				c0.1-0.3,0.1-0.9,0.2-1c0.6,5.3,8.9,8.1,13,4.6c3.6-3,5.7-11.2,4.4-15.7L159.2,132.6z"/>
			<path class="st13" d="M141.3,144.3c-1.1,1.5,5,5.6,6.8,6c-0.7,1.1-2.2,0.3-3.3,0.2c0.7,0.9,1.7,2.6-0.2,2.6
				c0.5,1.8,2.5,2.5,4,3.1c-1.7,2.9-5.7,0.3-6.7-1.9c-1.2-2.8-1.3-6.1-0.8-9.1L141.3,144.3z"/>
		</g>
	</g>
	<path class="st16" d="M119.1,28c0.2,0.6,1.3,2.2,1.7,3.2c0.6,1.6,0.8,2.7,0.3,4.4c-0.2,0.7-0.6,1.4-0.6,2.2
		c0.1,0.8,0.6,1.4,0.7,2.2c0.1,1.5-0.9,2.7-1,4.1c3.1-0.4,6.5,3,9.3,4c3.5,1.3,6.5,2.2,10.2,2.7c0.9-1.4,0.5-4.4,0.5-6.1
		c0-2.2,0.2-4.3-0.2-6.4c-0.9-4.6-2.8-7.4-7.3-9.2c-2.1-0.9-4.5-1.1-6.9-1.3C123.4,27.8,121.2,27.5,119.1,28L119.1,28z"/>
</g>
<g>
	<g>
		<path class="st17" d="M98,208.5c-7,11.2-37.8,48.9-46.6,49.3c-4.5,0.2-34.8-24.3-46.6-49.3c-9.9-21-6.7-50.5,29.6-45.8
			c9,1.2,17.2,17.3,17.2,17.3s6-13.7,14.6-15.7C101,156,111.3,187.1,98,208.5z"/>
		<path class="st18" d="M91.6,167.8c1.7,0.9,1.9,7,2.1,8.8c0.5,5.1-1,10.5-2.3,15.5c-2.5,9.7-7.2,19.6-14.9,26.8
			c-6.5,6.2-16.3,11.6-25.9,11.2c-7.8-0.3-14.4-3-20.4-7.5c-5.2-3.9-11-7.7-14.8-12.9c-3.2-4.3-5.4-9.3-7.2-14.1
			c-2.7-7-2.9-17.3-0.1-24.2c-3.1,0.3-5.2,9.3-5.8,11.7c-1.1,4.9-0.3,9.7,0.9,14.6c2.7,10.8,7.1,19.8,14,28.7
			c11,14.2,31.8,30.4,33.5,30.8c3.5,1,9.4-5.8,11.6-7.9c3.7-3.6,7.3-6.9,10.5-10.6c3.1-3.6,8-8.8,11-12.6c5.9-7.6,12.3-14.1,15.9-23
			c2.6-6.6,3.1-14.7,1.7-21.6c-0.6-3.2-2.5-5.1-4-8.1c-1-1.9-4-6.2-6.7-5.9c-0.1,0,0.1-0.2,0-0.4L91.6,167.8z"/>
		<path class="st18" d="M22,163.7c-2.7,0.3-7.5,1.5-10.1,3.2c-4.3,2.7-6.7,8.3-7.8,12.7c-3.5,15.1,5.2,31.9,16,43
			c5.5,5.7,11.2,11.1,19.1,13.8c7.6,2.6,15,1.2,22.3-1.4c9.2-3.3,17.7-11.5,22.6-19.2c3.9-6.2,8-12.6,10-19.5
			c2.4-8.1,4.6-17.1-0.3-24.7c-3.7-5.7-10.6-9.1-17.9-7.1c-0.7,0.2-1.1,0.4-1.7,0.3c8.8,1.3,11.2,13.5,10.3,19.9
			c-0.9,7.3-4.5,14.1-8.5,20.4c-3.3,5.2-7.2,9.5-13.6,11.4c-11.5,3.5-24.6-6.5-31.1-14.3c-5.8-7-8.9-14-3.4-21.7
			c3.1-4.4,8-8.2,5-13.7c-2.6-4.7-7.2-2.8-11.6-3.1H22z"/>
		<path class="st19" d="M88.6,167.2c4.1,8.3,2.2,20.1-0.4,28.5c-3.1,10-7.6,19.7-14.8,27.8c-5.4,6.1-11.6,10.8-19.8,13.3
			c-5.5,1.7-11.1,1-16.6,0c-4.1-0.8-8.4-3.8-11.8-6c1,1.7,2.8,3.2,4.1,4.8c1.6,2,3.1,4.1,4.7,6.1c2.6,3.3,5.9,6,8.9,8.9
			c2.2,2.2,5.8,5.7,9.4,4.9c4.3-1,8.3-5,11-8.1c6.3-7.5,13.9-14.1,20.4-21.5c7.1-7.9,14.8-17,17.4-27.1c1.5-5.9,0.5-13-1.3-18.7
			c-1.5-4.8-6.2-11.3-11.6-12.8L88.6,167.2z"/>
		<path class="st20" d="M48.6,177.4c-2.3-5.3-8-9.6-13.1-12.2c-6.6-3.5-12.8-2.8-19.8-0.5c-7.3,2.4-12.5,9.7-14.2,16.5
			c-0.9,3.9-0.9,8-0.7,12c0.1,2,1.7,11.3,5.6,10c2.3-0.7,2.4-7.1,2.6-8.8c0.4-3.5,1.2-7,2.3-10.5c1.8-5.7,5.1-9.4,11.4-11.2
			c8.2-2.3,17.2-0.6,23.8,4c0.7,0.5,2.2,1,1.7,1.7L48.6,177.4z"/>
		<path class="st20" d="M52.7,180c-1.6-2.8,10.1-8.1,12.3-8.7c5.5-1.3,11.1-1.8,16.4,0.6c11.7,5.4,18,19.2,16.4,30.8
			c-0.4,2.5-1,5-1.7,7.4c2.5-2.8,4-7.6,5-11.1c1-3.5,1-7.2,0.6-10.8c-0.7-6.6-2.2-13.6-7.5-18.7c-4.4-4.3-12.9-5.9-19.2-5.6
			c-7.5,0.3-12.7,2.8-17.4,8.2c-1.1,1.3-5.9,5.6-4,6.9L52.7,180z"/>
		<path class="st21" d="M18.1,180.8c-2.2,0.1-4,5.8-4.5,7.5c-1.5,4.4-1.2,9.5-0.5,14c1,6.4,5.3,21.9,15.7,14.7
			c6.3-4.3,11.2-13.6,13.6-20.3c1.7-4.9,2-9.6-0.3-14.3c-2.4-4.7-7.5-7.1-12.8-6.9c-2.7,0.1-4.9,0.9-7.1,2.3c-2,1.3-4.9,2.7-5.7,5
			L18.1,180.8z"/>
		<path class="st21" d="M22.2,177.4c-3.7,1.5-6.3,4.5-7.7,8.1c-1,2.5-3.5,10.2-0.5,12.4c1.9,1.4,2.7-2.4,3.2-3.8
			c0.9-2.2,2.1-4.1,3.5-6c2.5-3.3,5.3-4.9,9.2-6.3c3.6-1.3,4.3-3.4,0.2-4.7c-3.4-1.1-5,0.1-8.4,0.8L22.2,177.4z"/>
		<path class="st22" d="M18.4,164.3c-7-0.3-13.2,8.4-15.5,13.6c-1,2.2-2.6,7.5-0.7,9.7c3.4,4,5.1-6.7,5.6-8.2
			c1.4-4.1,3.5-7.8,7.3-10.3c2.9-1.9,7-4.5,10.8-4.5c-2.4-1-5.7-1-8.4,0L18.4,164.3z"/>
		<path class="st23" d="M9.1,169c-1.9,1.5-3,4-3.9,6.1c-0.5,1-2.8,6.9,0.3,4.8c1.1-0.7,1.4-3.2,1.9-4.3c0.7-1.6,1.6-3.4,2.7-4.7
			c1.5-1.9,4.4-4.2,6.5-5.1c-2.5-1.2-6.9,2.2-8,4.3L9.1,169z"/>
	</g>
	<g>
		<path class="st24" d="M23.2,232.3l-1.6,0c0-1.4,3.9-7.5,10.8-18.4c6.9-10.9,14.7-23.3,15.5-26.7l0.8-3.7l0.7,3.7
			c1,5.1,5.8,23.8,8.6,33c1.1-3.5,3.9-7.6,5.8-10.2l1.2-1.6l0.3,1.9c0.4,2.9,1.6,5.7,3,8.3c0.9-2.7,2.1-5.1,4.3-8.4l1-1.5l0.5,1.6
			c0.2,0.6,0.3,1.1,0.5,1.7c0.7,2.6,1.4,4.7,3,6.7c1.4-5.5,2.3-11.3,3.2-17.4c0.7-4.6,1.4-9.3,2.4-14l0.7-3.5l0.8,3.5
			c0.7,2.8,1.3,5.7,1.9,8.4c2,8.8,4,17.9,7,26.3c1.4-2.5,3.6-5.9,3.7-6l0.9-1.4l0.6,1.4c0,0,1.7,4.3,3,6.4c0.5-0.7,0.7-1.8,1-2.8
			c0.3-1.5,0.7-3.1,1.9-4l0.7-0.5l0.8,1.1c1.4,2,2.5,3.6,3.9,3.7c1,0.1,2.3-0.6,4.1-2c0.1-0.1,0.1-0.1,0.3-0.2l4.1-1.6l-2.9,2.4
			c0.1,0.3,0,0.7-0.6,0.8l-0.7,0.1c-1.8,1.3-3.2,1.8-4.5,1.7c-2-0.2-3.2-1.7-4.7-3.9c-0.4,0.7-0.6,1.7-0.8,2.6
			c-0.4,1.7-0.8,3.4-2.3,4.2l-0.7,0.3l-0.4-0.6c-0.9-1.2-2.2-4.2-3-6c-1.1,1.7-2.9,4.6-3.6,6.2l-0.8,1.7l-0.7-1.8
			c-3.4-9-5.6-18.7-7.7-28.1c-0.4-1.6-0.7-3.2-1.1-4.8c-0.6,3.5-1.1,6.9-1.7,10.3c-1,6.6-1.9,12.9-3.6,18.9l-0.4,1.3l-1-1
			c-2.6-2.6-3.4-5.3-4.3-8.3c0,0,0,0,0,0c-1.9,3.1-2.8,5.5-3.7,8.4l-0.5,1.8l-0.9-1.7c-1.4-2.5-2.9-5.5-3.6-8.5
			c-3.5,5.1-5.3,9.3-4.9,11.5l-1.5,0.2c-2.1-6-7.3-25.6-9.2-34c-2.5,5.3-8.9,15.4-14.7,24.5C28.9,222.3,23.2,231.2,23.2,232.3z"/>
		<path class="st25" d="M22.7,234.5l-1.6,0c0-1.4,3.9-7.5,10.8-18.4c6.9-10.9,14.7-23.3,15.5-26.7l0.8-3.6l0.7,3.7
			c1,5.1,5.8,23.8,8.6,33c1.1-3.5,3.9-7.6,5.8-10.2l1.2-1.6l0.3,1.9c0.4,2.9,1.6,5.7,3,8.3c0.9-2.7,2.1-5.1,4.3-8.4l1-1.5l0.5,1.6
			c0.2,0.6,0.3,1.1,0.5,1.7c0.7,2.6,1.4,4.7,3,6.7c1.4-5.5,2.3-11.3,3.2-17.4c0.7-4.6,1.4-9.3,2.4-14l0.7-3.5l0.8,3.5
			c0.7,2.8,1.3,5.7,1.9,8.4c2,8.8,4,17.9,7,26.3c1.4-2.5,3.6-5.9,3.7-6l0.9-1.4l0.6,1.4c0,0,1.7,4.3,3,6.4c0.5-0.7,0.7-1.8,1-2.8
			c0.3-1.5,0.7-3.1,1.9-4l0.7-0.5l0.8,1.1c1.4,2,2.5,3.6,3.9,3.7c1,0.1,2.3-0.6,4.1-2c0.1-0.1,0.1-0.1,0.3-0.2l4.1-1.6l-2.9,2.4
			c0.1,0.3,0,0.7-0.6,0.8l-0.7,0.1c-1.8,1.3-3.2,1.8-4.5,1.7c-2-0.2-3.2-1.7-4.7-3.9c-0.4,0.7-0.6,1.7-0.8,2.6
			c-0.4,1.7-0.8,3.4-2.3,4.2l-0.7,0.3l-0.4-0.6c-0.9-1.2-2.2-4.2-3-6c-1.1,1.7-2.9,4.6-3.6,6.2l-0.8,1.7l-0.7-1.7
			c-3.4-9-5.6-18.7-7.7-28.2c-0.4-1.6-0.7-3.2-1.1-4.8c-0.6,3.5-1.1,6.9-1.7,10.3c-1,6.6-1.9,12.9-3.6,18.9l-0.4,1.3l-1-1
			c-2.6-2.6-3.4-5.3-4.3-8.3c0,0,0,0,0,0c-1.9,3.1-2.8,5.5-3.7,8.4l-0.5,1.8l-0.9-1.7c-1.4-2.5-2.9-5.5-3.6-8.5
			c-3.5,5.1-5.3,9.3-4.9,11.5l-1.5,0.2c-2.1-6-7.3-25.6-9.2-34c-2.5,5.3-8.9,15.4-14.7,24.5C28.3,224.4,22.7,233.3,22.7,234.5z"/>
	</g>
</g>
<g>
	<g>
		<g>
			<g>
				<path class="st26" d="M175.6,157.5l-54.3,24c0.2,1.7-0.3,3.3-1.6,3.8c-1.3,0.6-2.8-0.1-3.9-1.4l-2.8,1.3c-2.9,1.3-4.1,5-2.7,8.2
					l40.9,92.4c1.4,3.2,5,4.8,7.9,3.5l44.7-19.8c-0.4-1.4,0.1-2.8,1.1-3.2c1.1-0.5,2.4,0.1,3.2,1.3l13.6-6c2.9-1.3,4.1-5,2.7-8.2
					L183.4,161C182,157.8,178.5,156.2,175.6,157.5z"/>
				<path class="st27" d="M176.4,163.3c6.3,10.1,6.4,23.5,8.5,34.9c0.9,5,3.8,9.3,4.8,14.2c0.9,4.8,1,9.7,0.9,14.5
					c-0.4,13.9-3.2,26.7-9,38.7c-1.9,4-4,7.5-6.1,11.3c5-0.4,9.9-4,14.5-5.7c2.4-0.9,5.6-0.8,7.8-2.2c1.8-1.2,2.6-4.1,5-4.5
					c2.3-0.5,4.1,1.4,6.6,0.6c2.1-0.7,4.9-2.2,6.5-3.7c4.6-4.4,1.4-11.2-0.7-16.7c-5.1-13.5-10.8-26.8-16-40.2
					c-4.4-11.3-9-23.2-14.3-34c-1.1-2.3-1.8-5.2-3.5-7c-1.3-1.5-4.3-3.4-4.2-0.1L176.4,163.3z"/>
				<path class="st27" d="M119.2,187.5c-3.4,6.6,2.4,18.7,4.9,25.3c2.9,7.6,6.8,15.7,9.2,23.1c-4.8-8.6-9-17.6-13.5-26.5
					c-2.2-4.4-4.3-8.8-6.2-13.2c-3-6.9,0.2-6.3,4.9-8.8L119.2,187.5z"/>
			</g>
			<path class="st27" d="M205.7,224.8c-0.3,1,0.4,2.5,0.7,3.6c0.5,2,0.7,4.2,1.5,6.1c1.3,3,2.2,5.1,2.5,8.4c0.3,4,2.4,9,0.9,12.8
				c-0.3,0.7-1,1.8-1.6,2.2c-0.9,0.5-1.1,0-2-0.1c-1.5-0.1-2.3,0.3-3.1,1.7c-0.7,1.2-1.3,1.9-2.2,2.9c-0.8,1-1.1,2.3-1.8,3.4
				c-0.6,1-1.6,1.7-2.6,2.3c1.5-2,4.5-3.7,6.9-4.2c2.4-0.5,4.8,0.7,7.2-0.5c1.2-0.6,2-1.8,3.1-2.6c1.1-0.8,2.5-1,3.8-1.4
				c3.4-1.1,2.6-5.4,1.5-8.6c-2.4-7.2-6.8-13.5-9.4-20.7c-1.6-4.7-3.8-10.9-6.9-14.7c0.3,3.4,1.4,6.8,1.9,10.2L205.7,224.8z"/>
		</g>
		<g>
			<path class="st28" d="M147.6,192.5c1.4-1.9,2.4,3.6,2.7,4.9c0.9,3.2,2.9,3.6,3.8,6.5c0.4,1.4-0.5,2.2,0.3,3.6
				c0.6,1,1.8,1.2,2.6,2.6c0.6,1.2,0.3,2.4,1.1,3.7c0.6,1.1,1.9,1.5,2.6,2.8c1,2,1.1,5.4,1.8,7.7c0.8,2.7,1.7,5.3,2.8,8.1
				c1.8,4.2,4.7,12,8.6,13.7c7,3,4.8-8.2,3.4-12.1c-1.8-5.1-5.2-10.1-8.2-14.2c-1.4-2-3.7-4.3-4.4-6.5c-0.3-1,0.2-2.3-0.5-3.4
				c-0.9-1.3-2.2-0.8-3-2.1c-0.5-0.9-0.1-2.4-0.6-3.5c-0.4-0.8-1.6-1.5-2-2.4c0,0-0.7-3-0.7-3.1c-0.1-0.5-1-0.9-1.2-1.4
				c-0.4-0.9,0.5-1.2,0.1-2c-0.9-2.1-1.1-2.6-1.6-4.8c-0.5-2.5-0.8-3.1-2.9-4.3c-5.2-3.1-6.3,5-3.8,5.1L147.6,192.5z"/>
			<path class="st28" d="M151.1,194.5c-2.2-5.1-8.1-5.5-12.5-2.2c-3.7,2.8-5.5,8.4-6.3,12.8c-1,5.6-1.3,12,0,17.4
				c1.4,6.2,4.8,9.4,7.9,14.7c3,5.1,4.6,10.2,8.9,14.6c3.9,4,7.7,6.6,13.1,8.3c-10,2.6-19.1-13.1-22.8-19.6
				c-5.6-9.7-11.2-19.2-10.7-30.9c0.3-6.8,1.7-13.5,6.4-18.9c5.3-6,11.8-4.2,14.8,2.1L151.1,194.5z"/>
			<path class="st28" d="M151.5,198.8c-4.5-4.7-12.3-3.1-16,0.7c-4.1,4.2-5.9,10.9-5,17.6c0.3,2.3,1.2,5.8,2.3,7.6
				c-0.9-3.4-0.5-8,0-11.2c0.6-3.4,1.4-6.4,3.3-9.1c3.8-5.4,10.5-4.4,15.7-0.5c0.9,0.7,1.9,1.8,2.9,2.3c0.5-1.8-2.6-6.5-3.8-7.7
				c-0.2,0.1-0.1,0.3-0.1,0.4L151.5,198.8z"/>
			<path class="st28" d="M160.1,215.1c-1-0.3-2.2-1.7-3.7-2.1c-1.7-0.4-3.3-0.1-4.9,0.2c-3.8,0.9-6.9,4.5-8.1,8.7
				c-2,7.2-1.9,15,0.4,22.7c0.3,0.9,0.4,1.9,0.7,2.8c-0.2-1.3-1.3-2.9-1.8-4.3c-0.6-1.6-1-3.2-1.3-4.8c-0.6-3.1-1-6.4-0.7-9.6
				c0.6-7,1.7-14.9,7.3-18.6c2.1-1.4,4.8-1.4,7.3-0.3c1.8,0.8,4.7,3.1,5,5.4L160.1,215.1z"/>
			<path class="st28" d="M162.5,220.9c-6.9-5.6-13.2,7.5-14.4,13c-1,4.5-0.4,8.2,1.4,12.6c1.6,4,5.3,7.3,6.9,11.3
				c-9.3-3.5-11.9-15.5-10.4-24.5c0.8-4.9,3.1-9.1,6.1-12.4c2.2-2.4,9.7-5.7,10.4,0.8L162.5,220.9z"/>
			<path class="st28" d="M157.1,208.1c-3.7-1.3-6.7-4.3-10.6-4.2c-3.9,0.1-8.6,2.3-10.6,6c-3.5,6.4-2.8,23.2,4.6,27.7
				c-5.2-7.3-6.3-17.5-1.8-24c2.5-3.5,5.7-5.2,9.7-5.5c3-0.2,7.5,3.7,9.8,2.6c-0.5-1.6-1.4-3.3-2.9-2.9L157.1,208.1z"/>
			<path class="st28" d="M148.3,188.8c-1.7,1.7,1.4,5.2,2.3,7.1c0.6,1.3,0.6,2.7,1.2,4.1c1,2.6,1.7,1.6,3,3.3
				c1.1,1.5,0.7,2.2,1.3,3.7c0.6,1.4,1.3,2.2,1.9,3.4c1.2,2.5,2.2,5,3,7.6c1.7,5.2,1.9,10.5,4.8,15.3c2.1,3.6,7.4,8.8,2.5,10.8
				c-3.3,1.4-7.4-0.8-10.7,0.7c-5.3,2.4-5.9,9.8-1,13.9c3,2.5,6.4,1.7,9.7,2.7c2.9,0.8,4.5,3.4,7.3,4.5c4.6,1.9,12.2,6.4,14.3-0.1
				c0.9-2.8,0.1-6.5,2.4-8.8c2.1-2,5.1-1.7,6.8-4.5c1.7-2.7,1-6.5,3.1-8.9c2.1-2.5,5.1-3.1,5.3-7.3c0.5-8.7-8.2-6.4-12.9-5.1
				c-2.2,0.6-5.3,1.1-7.3,2.5c-2,1.4-3.5,3.8-5.3,5.4c-3.3,2.9-6.5,4-10.1,4.9L148.3,188.8z"/>
			<g>
				<path class="st28" d="M154,192.6c-2.3-5.1,1.4-9.7,6.8-10.7c4.6-0.9,9.9,1.6,13.7,4c4.8,3,9.7,7.1,12.9,11.7
					c3.7,5.3,3.8,9.9,5.5,15.8c1.7,5.6,4.4,10.3,4.9,16.4c0.4,5.6-0.3,10.2-2.7,15.3c8.6-5.6,3.1-22.9,0.8-30.1
					c-3.5-10.7-6.7-21.2-15.7-28.7c-5.2-4.3-11.1-7.9-18.3-8c-8.1-0.1-11.1,5.9-8.4,12.4L154,192.6z"/>
				<path class="st28" d="M156.9,195.8c-0.4-6.5,6-11.2,11.3-11.4c5.8-0.2,12,3,16.4,8.1c1.5,1.8,3.5,4.8,4.1,6.9
					c-1.9-2.9-5.5-5.8-8.3-7.6c-2.9-1.9-5.7-3.3-8.9-3.7c-6.6-0.9-10.3,4.8-10.9,11.3c-0.1,1.2,0.1,2.6-0.2,3.7
					c-1.6-0.8-3.1-6.3-3.2-8c0.2-0.1,0.2,0.1,0.4,0.2L156.9,195.8z"/>
				<path class="st28" d="M163.3,213.2c0.4-0.9,0.2-2.8,0.9-4.2c0.8-1.5,2.1-2.6,3.5-3.5c3.3-2.2,8-2.1,11.9-0.2
					c6.6,3.3,12.4,8.7,16.5,15.5c0.5,0.8,1.1,1.6,1.7,2.4c-0.9-1-1.3-2.9-2-4.2c-0.8-1.5-1.7-2.9-2.7-4.2c-1.9-2.5-4.1-5.1-6.6-7
					c-5.6-4.3-12.1-8.8-18.7-7.1c-2.4,0.6-4.3,2.7-5.2,5.2c-0.6,1.9-0.8,5.5,0.6,7.3L163.3,213.2z"/>
				<path class="st28" d="M165.9,218.8c0.5-8.9,14.4-4.8,19.3-2c4,2.3,6.3,5.2,8.4,9.5c1.9,3.8,1.8,8.9,3.7,12.6
					c3.7-9.3-3.4-19.2-11.1-24.1c-4.2-2.7-8.8-3.8-13.3-3.8c-3.3,0-10.7,3.4-6.4,8.3L165.9,218.8z"/>
				<path class="st28" d="M160.1,206.2c1.5-3.6,1.3-7.9,4-10.7c2.6-2.8,7.5-4.8,11.6-3.8c7.1,1.7,19,13.5,17.4,22
					c-1.9-8.7-8.8-16.4-16.6-17.4c-4.3-0.6-7.7,0.7-10.6,3.4c-2.2,2.1-2.3,8-4.7,9.1c-0.9-1.4-1.5-3.3-0.2-4.1L160.1,206.2z"/>
			</g>
		</g>
	</g>
	<path class="st28" d="M173,243.4c-4.3,1.9-9.7,1-14.2,2c-4.5,1-8.9,7.9-8,12.9c1.4,7.9,9.1,4.7,14,5.4c4.9,0.6,10.1,5.4,14.5,7.9
		c2.9,1.7,4.9,2.3,7.5-0.2c2.7-2.7,1.7-6.3,2.9-9.6c0.9-2.5,15.6-12.2,9.1-16.5c-1.2,1.9-1.6,4.4-2.7,6.5c-0.6,1-1.1,2.5-2.2,3
		c-1.4,0.7-2.4-0.5-3.5,0c-4.9,1.8-1.4,10.6-6.1,11.7c-3.5,0.8-2-2.4-3.2-3.3c-1.9-1.4-3.3,1.9-5.7,1.5c-1.6-0.3-3.8-3.2-4.4-4.4
		c-1.3-2.9-0.2-2.6,1.3-4.9c-1.8-1.2-5,0.1-6.6-1.7c-2.6-2.9,1-2.6,2.5-3.1c2.1-0.7,3.4-1.2,4.3-3.7c0.5-1.2,1.3-4.4-0.9-2.8
		L173,243.4z"/>
</g>
</svg>
